<?xml version="1.0" encoding="UTF-8"?>
<svg width="28px" height="28px" viewBox="0 0 28 28" version="1.1" xmlns="http://www.w3.org/2000/svg" xmlns:xlink="http://www.w3.org/1999/xlink">
    <!-- Generator: Sketch 52.6 (67491) - http://www.bohemiancoding.com/sketch -->
    <title>standard/mail</title>
    <desc>Created with Sketch.</desc>
    <g id="mail" stroke="none" stroke-width="1" fill="none" fill-rule="evenodd" stroke-linecap="round" stroke-linejoin="round">
        <g id="Group" transform="translate(4.000000, 9.000000)" stroke="#0E0E0E" stroke-width="1.16">
            <path d="M0.743526687,-3.00393681e-17 L19.2564733,3.00393681e-17 C19.5150137,-1.74537379e-17 19.6087667,0.0269194265 19.7032853,0.0774684819 C19.7978038,0.128017537 19.8719825,0.202196222 19.9225315,0.296714737 C19.9730806,0.391233253 20,0.484986259 20,0.743526687 L20,9.25647331 C20,9.51501374 19.9730806,9.60876675 19.9225315,9.70328526 C19.8719825,9.79780378 19.7978038,9.87198246 19.7032853,9.92253152 C19.6087667,9.97308057 19.5150137,10 19.2564733,10 L0.743526687,10 C0.484986259,10 0.391233253,9.97308057 0.296714737,9.92253152 C0.202196222,9.87198246 0.128017537,9.79780378 0.0774684819,9.70328526 C0.0269194265,9.60876675 1.16358253e-17,9.51501374 -2.00262454e-17,9.25647331 L2.00262454e-17,0.743526687 C-1.16358253e-17,0.484986259 0.0269194265,0.391233253 0.0774684819,0.296714737 C0.128017537,0.202196222 0.202196222,0.128017537 0.296714737,0.0774684819 C0.391233253,0.0269194265 0.484986259,1.74537379e-17 0.743526687,-3.00393681e-17 Z" id="Rectangle-27"></path>
            <path d="M1,1 L9.6691711,7.02025726 C9.86809351,7.15839781 10.1319078,7.1583978 10.3308302,7.02025723 L19,1" id="Line"></path>
        </g>
    </g>
</svg>